# xmcd CD database file
#
# Track frame offsets:
#	150
#	13128
#	29094
#	42685
#	57279
#	72882
#	87684
#
# Disc length: 1378 seconds
#
# Revision: 0
# Processed by: cddbd v1.5.2PL0 Copyright (c) Steve Scherf et al.
# Submitted via: CDex 1.51
#
DISCID=67056007
DTITLE=Robyn and Ryleigh - By Heart
DYEAR=2016
DGENRE=Country
TTITLE0=By Heart
TTITLE1=Rockstar
TTITLE2=Better Tomorrow
TTITLE3=California
TTITLE4=I Found You
TTITLE5=Home Wrecker
TTITLE6=Feels Like Forever
EXTD=YEAR: 2016
EXTT0=
EXTT1=
EXTT2=
EXTT3=
EXTT4=
EXTT5=
EXTT6=
PLAYORDER=
